<svg width="242" height="149" viewBox="0 0 242 149" fill="none" xmlns="http://www.w3.org/2000/svg">
<path d="M26.8125 43.0469H9.28125L9.1875 33.3906H23.9062C26.5 33.3906 28.625 33.0625 30.2812 32.4062C31.9375 31.7188 33.1719 30.7344 33.9844 29.4531C34.8281 28.1406 35.25 26.5469 35.25 24.6719C35.25 22.5469 34.8438 20.8281 34.0312 19.5156C33.25 18.2031 32.0156 17.25 30.3281 16.6562C28.6719 16.0625 26.5312 15.7656 23.9062 15.7656H14.1562V73H0.09375V4.75H23.9062C27.875 4.75 31.4219 5.125 34.5469 5.875C37.7031 6.625 40.375 7.76562 42.5625 9.29688C44.75 10.8281 46.4219 12.7656 47.5781 15.1094C48.7344 17.4219 49.3125 20.1719 49.3125 23.3594C49.3125 26.1719 48.6719 28.7656 47.3906 31.1406C46.1406 33.5156 44.1562 35.4531 41.4375 36.9531C38.75 38.4531 35.2344 39.2812 30.8906 39.4375L26.8125 43.0469ZM26.2031 73H5.4375L10.9219 62.0312H26.2031C28.6719 62.0312 30.6875 61.6406 32.25 60.8594C33.8125 60.0469 34.9688 58.9531 35.7188 57.5781C36.4688 56.2031 36.8438 54.625 36.8438 52.8438C36.8438 50.8438 36.5 49.1094 35.8125 47.6406C35.1562 46.1719 34.0938 45.0469 32.625 44.2656C31.1562 43.4531 29.2188 43.0469 26.8125 43.0469H13.2656L13.3594 33.3906H30.2344L33.4688 37.1875C37.625 37.125 40.9688 37.8594 43.5 39.3906C46.0625 40.8906 47.9219 42.8438 49.0781 45.25C50.2656 47.6562 50.8594 50.2344 50.8594 52.9844C50.8594 57.3594 49.9062 61.0469 48 64.0469C46.0938 67.0156 43.2969 69.25 39.6094 70.75C35.9531 72.25 31.4844 73 26.2031 73ZM58.4062 48.1562V47.1719C58.4062 43.4531 58.9375 40.0312 60 36.9062C61.0625 33.75 62.6094 31.0156 64.6406 28.7031C66.6719 26.3906 69.1719 24.5938 72.1406 23.3125C75.1094 22 78.5156 21.3438 82.3594 21.3438C86.2031 21.3438 89.625 22 92.625 23.3125C95.625 24.5938 98.1406 26.3906 100.172 28.7031C102.234 31.0156 103.797 33.75 104.859 36.9062C105.922 40.0312 106.453 43.4531 106.453 47.1719V48.1562C106.453 51.8438 105.922 55.2656 104.859 58.4219C103.797 61.5469 102.234 64.2812 100.172 66.625C98.1406 68.9375 95.6406 70.7344 92.6719 72.0156C89.7031 73.2969 86.2969 73.9375 82.4531 73.9375C78.6094 73.9375 75.1875 73.2969 72.1875 72.0156C69.2188 70.7344 66.7031 68.9375 64.6406 66.625C62.6094 64.2812 61.0625 61.5469 60 58.4219C58.9375 55.2656 58.4062 51.8438 58.4062 48.1562ZM71.9062 47.1719V48.1562C71.9062 50.2812 72.0938 52.2656 72.4688 54.1094C72.8438 55.9531 73.4375 57.5781 74.25 58.9844C75.0938 60.3594 76.1875 61.4375 77.5312 62.2188C78.875 63 80.5156 63.3906 82.4531 63.3906C84.3281 63.3906 85.9375 63 87.2812 62.2188C88.625 61.4375 89.7031 60.3594 90.5156 58.9844C91.3281 57.5781 91.9219 55.9531 92.2969 54.1094C92.7031 52.2656 92.9062 50.2812 92.9062 48.1562V47.1719C92.9062 45.1094 92.7031 43.1719 92.2969 41.3594C91.9219 39.5156 91.3125 37.8906 90.4688 36.4844C89.6562 35.0469 88.5781 33.9219 87.2344 33.1094C85.8906 32.2969 84.2656 31.8906 82.3594 31.8906C80.4531 31.8906 78.8281 32.2969 77.4844 33.1094C76.1719 33.9219 75.0938 35.0469 74.25 36.4844C73.4375 37.8906 72.8438 39.5156 72.4688 41.3594C72.0938 43.1719 71.9062 45.1094 71.9062 47.1719ZM112.594 48.1562V47.1719C112.594 43.4531 113.125 40.0312 114.188 36.9062C115.25 33.75 116.797 31.0156 118.828 28.7031C120.859 26.3906 123.359 24.5938 126.328 23.3125C129.297 22 132.703 21.3438 136.547 21.3438C140.391 21.3438 143.812 22 146.812 23.3125C149.812 24.5938 152.328 26.3906 154.359 28.7031C156.422 31.0156 157.984 33.75 159.047 36.9062C160.109 40.0312 160.641 43.4531 160.641 47.1719V48.1562C160.641 51.8438 160.109 55.2656 159.047 58.4219C157.984 61.5469 156.422 64.2812 154.359 66.625C152.328 68.9375 149.828 70.7344 146.859 72.0156C143.891 73.2969 140.484 73.9375 136.641 73.9375C132.797 73.9375 129.375 73.2969 126.375 72.0156C123.406 70.7344 120.891 68.9375 118.828 66.625C116.797 64.2812 115.25 61.5469 114.188 58.4219C113.125 55.2656 112.594 51.8438 112.594 48.1562ZM126.094 47.1719V48.1562C126.094 50.2812 126.281 52.2656 126.656 54.1094C127.031 55.9531 127.625 57.5781 128.438 58.9844C129.281 60.3594 130.375 61.4375 131.719 62.2188C133.062 63 134.703 63.3906 136.641 63.3906C138.516 63.3906 140.125 63 141.469 62.2188C142.812 61.4375 143.891 60.3594 144.703 58.9844C145.516 57.5781 146.109 55.9531 146.484 54.1094C146.891 52.2656 147.094 50.2812 147.094 48.1562V47.1719C147.094 45.1094 146.891 43.1719 146.484 41.3594C146.109 39.5156 145.5 37.8906 144.656 36.4844C143.844 35.0469 142.766 33.9219 141.422 33.1094C140.078 32.2969 138.453 31.8906 136.547 31.8906C134.641 31.8906 133.016 32.2969 131.672 33.1094C130.359 33.9219 129.281 35.0469 128.438 36.4844C127.625 37.8906 127.031 39.5156 126.656 41.3594C126.281 43.1719 126.094 45.1094 126.094 47.1719ZM182.438 0.953125V73H168.938V0.953125H182.438ZM214.406 22.2812L192.375 47.4062L180.562 59.3594L175.641 49.6094L185.016 37.7031L198.188 22.2812H214.406ZM200.391 73L185.391 49.5625L194.719 41.4062L215.953 73H200.391ZM234.469 22.2812V73H220.922V22.2812H234.469ZM220.078 9.0625C220.078 7.09375 220.766 5.46875 222.141 4.1875C223.516 2.90625 225.359 2.26562 227.672 2.26562C229.953 2.26562 231.781 2.90625 233.156 4.1875C234.562 5.46875 235.266 7.09375 235.266 9.0625C235.266 11.0312 234.562 12.6563 233.156 13.9375C231.781 15.2187 229.953 15.8594 227.672 15.8594C225.359 15.8594 223.516 15.2187 222.141 13.9375C220.766 12.6563 220.078 11.0312 220.078 9.0625ZM80.3125 110.281L67.9375 148H57.9688L74.875 102.5H81.2188L80.3125 110.281ZM90.5938 148L78.1875 110.281L77.1875 102.5H83.5938L100.594 148H90.5938ZM90.0312 131.062V138.406H66V131.062H90.0312ZM124.219 140.625V100H133.281V148H125.125L124.219 140.625ZM102.844 131.5V130.844C102.844 128.26 103.135 125.917 103.719 123.812C104.302 121.688 105.156 119.865 106.281 118.344C107.406 116.823 108.792 115.646 110.438 114.812C112.083 113.979 113.958 113.562 116.062 113.562C118.042 113.562 119.771 113.979 121.25 114.812C122.75 115.646 124.021 116.833 125.062 118.375C126.125 119.896 126.979 121.698 127.625 123.781C128.271 125.844 128.74 128.104 129.031 130.562V132C128.74 134.354 128.271 136.542 127.625 138.562C126.979 140.583 126.125 142.354 125.062 143.875C124.021 145.375 122.75 146.542 121.25 147.375C119.75 148.208 118 148.625 116 148.625C113.896 148.625 112.021 148.198 110.375 147.344C108.75 146.49 107.375 145.292 106.25 143.75C105.146 142.208 104.302 140.396 103.719 138.312C103.135 136.229 102.844 133.958 102.844 131.5ZM111.844 130.844V131.5C111.844 132.896 111.948 134.198 112.156 135.406C112.385 136.615 112.75 137.688 113.25 138.625C113.771 139.542 114.438 140.26 115.25 140.781C116.083 141.281 117.094 141.531 118.281 141.531C119.823 141.531 121.094 141.188 122.094 140.5C123.094 139.792 123.854 138.823 124.375 137.594C124.917 136.365 125.229 134.948 125.312 133.344V129.25C125.25 127.938 125.062 126.76 124.75 125.719C124.458 124.656 124.021 123.75 123.438 123C122.875 122.25 122.167 121.667 121.312 121.25C120.479 120.833 119.49 120.625 118.344 120.625C117.177 120.625 116.177 120.896 115.344 121.438C114.51 121.958 113.833 122.677 113.312 123.594C112.812 124.51 112.438 125.594 112.188 126.844C111.958 128.073 111.844 129.406 111.844 130.844ZM149.312 121.188V148H140.281V114.188H148.75L149.312 121.188ZM148.062 129.906H145.562C145.562 127.552 145.844 125.385 146.406 123.406C146.99 121.406 147.833 119.677 148.938 118.219C150.062 116.74 151.448 115.594 153.094 114.781C154.74 113.969 156.646 113.562 158.812 113.562C160.312 113.562 161.688 113.792 162.938 114.25C164.188 114.688 165.26 115.385 166.156 116.344C167.073 117.281 167.781 118.51 168.281 120.031C168.781 121.531 169.031 123.333 169.031 125.438V148H160.031V126.438C160.031 124.896 159.823 123.708 159.406 122.875C158.99 122.042 158.396 121.458 157.625 121.125C156.875 120.792 155.969 120.625 154.906 120.625C153.74 120.625 152.719 120.865 151.844 121.344C150.99 121.823 150.281 122.49 149.719 123.344C149.156 124.177 148.74 125.156 148.469 126.281C148.198 127.406 148.062 128.615 148.062 129.906ZM168.188 128.875L164.969 129.281C164.969 127.073 165.24 125.021 165.781 123.125C166.344 121.229 167.167 119.562 168.25 118.125C169.354 116.688 170.719 115.573 172.344 114.781C173.969 113.969 175.844 113.562 177.969 113.562C179.594 113.562 181.073 113.802 182.406 114.281C183.74 114.74 184.875 115.479 185.812 116.5C186.771 117.5 187.5 118.812 188 120.438C188.521 122.062 188.781 124.052 188.781 126.406V148H179.75V126.406C179.75 124.844 179.542 123.656 179.125 122.844C178.729 122.01 178.146 121.438 177.375 121.125C176.625 120.792 175.729 120.625 174.688 120.625C173.604 120.625 172.656 120.844 171.844 121.281C171.031 121.698 170.354 122.281 169.812 123.031C169.271 123.781 168.865 124.656 168.594 125.656C168.323 126.635 168.188 127.708 168.188 128.875ZM205.25 114.188V148H196.219V114.188H205.25ZM195.656 105.375C195.656 104.062 196.115 102.979 197.031 102.125C197.948 101.271 199.177 100.844 200.719 100.844C202.24 100.844 203.458 101.271 204.375 102.125C205.312 102.979 205.781 104.062 205.781 105.375C205.781 106.688 205.312 107.771 204.375 108.625C203.458 109.479 202.24 109.906 200.719 109.906C199.177 109.906 197.948 109.479 197.031 108.625C196.115 107.771 195.656 106.688 195.656 105.375ZM221.5 121.406V148H212.5V114.188H220.938L221.5 121.406ZM220.188 129.906H217.75C217.75 127.406 218.073 125.156 218.719 123.156C219.365 121.135 220.271 119.417 221.438 118C222.604 116.562 223.99 115.469 225.594 114.719C227.219 113.948 229.031 113.562 231.031 113.562C232.615 113.562 234.062 113.792 235.375 114.25C236.688 114.708 237.812 115.438 238.75 116.438C239.708 117.438 240.438 118.76 240.938 120.406C241.458 122.052 241.719 124.062 241.719 126.438V148H232.656V126.406C232.656 124.906 232.448 123.74 232.031 122.906C231.615 122.073 231 121.49 230.188 121.156C229.396 120.802 228.417 120.625 227.25 120.625C226.042 120.625 224.99 120.865 224.094 121.344C223.219 121.823 222.49 122.49 221.906 123.344C221.344 124.177 220.917 125.156 220.625 126.281C220.333 127.406 220.188 128.615 220.188 129.906Z" fill="#E04F00"/>
</svg>
