<svg width="236" height="74" viewBox="0 0 236 74" fill="none" xmlns="http://www.w3.org/2000/svg">
<path d="M26.8125 43.0469H9.28125L9.1875 33.3906H23.9062C26.5 33.3906 28.625 33.0625 30.2812 32.4062C31.9375 31.7188 33.1719 30.7344 33.9844 29.4531C34.8281 28.1406 35.25 26.5469 35.25 24.6719C35.25 22.5469 34.8438 20.8281 34.0312 19.5156C33.25 18.2031 32.0156 17.25 30.3281 16.6562C28.6719 16.0625 26.5312 15.7656 23.9062 15.7656H14.1562V73H0.09375V4.75H23.9062C27.875 4.75 31.4219 5.125 34.5469 5.875C37.7031 6.625 40.375 7.76562 42.5625 9.29688C44.75 10.8281 46.4219 12.7656 47.5781 15.1094C48.7344 17.4219 49.3125 20.1719 49.3125 23.3594C49.3125 26.1719 48.6719 28.7656 47.3906 31.1406C46.1406 33.5156 44.1562 35.4531 41.4375 36.9531C38.75 38.4531 35.2344 39.2812 30.8906 39.4375L26.8125 43.0469ZM26.2031 73H5.4375L10.9219 62.0312H26.2031C28.6719 62.0312 30.6875 61.6406 32.25 60.8594C33.8125 60.0469 34.9688 58.9531 35.7188 57.5781C36.4688 56.2031 36.8438 54.625 36.8438 52.8438C36.8438 50.8438 36.5 49.1094 35.8125 47.6406C35.1562 46.1719 34.0938 45.0469 32.625 44.2656C31.1562 43.4531 29.2188 43.0469 26.8125 43.0469H13.2656L13.3594 33.3906H30.2344L33.4688 37.1875C37.625 37.125 40.9688 37.8594 43.5 39.3906C46.0625 40.8906 47.9219 42.8438 49.0781 45.25C50.2656 47.6562 50.8594 50.2344 50.8594 52.9844C50.8594 57.3594 49.9062 61.0469 48 64.0469C46.0938 67.0156 43.2969 69.25 39.6094 70.75C35.9531 72.25 31.4844 73 26.2031 73ZM58.4062 48.1562V47.1719C58.4062 43.4531 58.9375 40.0312 60 36.9062C61.0625 33.75 62.6094 31.0156 64.6406 28.7031C66.6719 26.3906 69.1719 24.5938 72.1406 23.3125C75.1094 22 78.5156 21.3438 82.3594 21.3438C86.2031 21.3438 89.625 22 92.625 23.3125C95.625 24.5938 98.1406 26.3906 100.172 28.7031C102.234 31.0156 103.797 33.75 104.859 36.9062C105.922 40.0312 106.453 43.4531 106.453 47.1719V48.1562C106.453 51.8438 105.922 55.2656 104.859 58.4219C103.797 61.5469 102.234 64.2812 100.172 66.625C98.1406 68.9375 95.6406 70.7344 92.6719 72.0156C89.7031 73.2969 86.2969 73.9375 82.4531 73.9375C78.6094 73.9375 75.1875 73.2969 72.1875 72.0156C69.2188 70.7344 66.7031 68.9375 64.6406 66.625C62.6094 64.2812 61.0625 61.5469 60 58.4219C58.9375 55.2656 58.4062 51.8438 58.4062 48.1562ZM71.9062 47.1719V48.1562C71.9062 50.2812 72.0938 52.2656 72.4688 54.1094C72.8438 55.9531 73.4375 57.5781 74.25 58.9844C75.0938 60.3594 76.1875 61.4375 77.5312 62.2188C78.875 63 80.5156 63.3906 82.4531 63.3906C84.3281 63.3906 85.9375 63 87.2812 62.2188C88.625 61.4375 89.7031 60.3594 90.5156 58.9844C91.3281 57.5781 91.9219 55.9531 92.2969 54.1094C92.7031 52.2656 92.9062 50.2812 92.9062 48.1562V47.1719C92.9062 45.1094 92.7031 43.1719 92.2969 41.3594C91.9219 39.5156 91.3125 37.8906 90.4688 36.4844C89.6562 35.0469 88.5781 33.9219 87.2344 33.1094C85.8906 32.2969 84.2656 31.8906 82.3594 31.8906C80.4531 31.8906 78.8281 32.2969 77.4844 33.1094C76.1719 33.9219 75.0938 35.0469 74.25 36.4844C73.4375 37.8906 72.8438 39.5156 72.4688 41.3594C72.0938 43.1719 71.9062 45.1094 71.9062 47.1719ZM112.594 48.1562V47.1719C112.594 43.4531 113.125 40.0312 114.188 36.9062C115.25 33.75 116.797 31.0156 118.828 28.7031C120.859 26.3906 123.359 24.5938 126.328 23.3125C129.297 22 132.703 21.3438 136.547 21.3438C140.391 21.3438 143.812 22 146.812 23.3125C149.812 24.5938 152.328 26.3906 154.359 28.7031C156.422 31.0156 157.984 33.75 159.047 36.9062C160.109 40.0312 160.641 43.4531 160.641 47.1719V48.1562C160.641 51.8438 160.109 55.2656 159.047 58.4219C157.984 61.5469 156.422 64.2812 154.359 66.625C152.328 68.9375 149.828 70.7344 146.859 72.0156C143.891 73.2969 140.484 73.9375 136.641 73.9375C132.797 73.9375 129.375 73.2969 126.375 72.0156C123.406 70.7344 120.891 68.9375 118.828 66.625C116.797 64.2812 115.25 61.5469 114.188 58.4219C113.125 55.2656 112.594 51.8438 112.594 48.1562ZM126.094 47.1719V48.1562C126.094 50.2812 126.281 52.2656 126.656 54.1094C127.031 55.9531 127.625 57.5781 128.438 58.9844C129.281 60.3594 130.375 61.4375 131.719 62.2188C133.062 63 134.703 63.3906 136.641 63.3906C138.516 63.3906 140.125 63 141.469 62.2188C142.812 61.4375 143.891 60.3594 144.703 58.9844C145.516 57.5781 146.109 55.9531 146.484 54.1094C146.891 52.2656 147.094 50.2812 147.094 48.1562V47.1719C147.094 45.1094 146.891 43.1719 146.484 41.3594C146.109 39.5156 145.5 37.8906 144.656 36.4844C143.844 35.0469 142.766 33.9219 141.422 33.1094C140.078 32.2969 138.453 31.8906 136.547 31.8906C134.641 31.8906 133.016 32.2969 131.672 33.1094C130.359 33.9219 129.281 35.0469 128.438 36.4844C127.625 37.8906 127.031 39.5156 126.656 41.3594C126.281 43.1719 126.094 45.1094 126.094 47.1719ZM182.438 0.953125V73H168.938V0.953125H182.438ZM214.406 22.2812L192.375 47.4062L180.562 59.3594L175.641 49.6094L185.016 37.7031L198.188 22.2812H214.406ZM200.391 73L185.391 49.5625L194.719 41.4062L215.953 73H200.391ZM234.469 22.2812V73H220.922V22.2812H234.469ZM220.078 9.0625C220.078 7.09375 220.766 5.46875 222.141 4.1875C223.516 2.90625 225.359 2.26562 227.672 2.26562C229.953 2.26562 231.781 2.90625 233.156 4.1875C234.562 5.46875 235.266 7.09375 235.266 9.0625C235.266 11.0312 234.562 12.6563 233.156 13.9375C231.781 15.2187 229.953 15.8594 227.672 15.8594C225.359 15.8594 223.516 15.2187 222.141 13.9375C220.766 12.6563 220.078 11.0312 220.078 9.0625Z" fill="#E04F00"/>
</svg>
